<svg width="22" height="23" viewBox="0 0 22 23" fill="none" xmlns="http://www.w3.org/2000/svg">
<path d="M3.84957 19.1031L4.05415 19.8333H4.8125H8.25H9.25V18.8333V18H10.9167V18.8333V19.8333H11.9167H15.3542H16.0981L16.312 19.1208L17.6444 14.6809L19.5631 14.0484L20.25 13.8219V13.0987V8.29167V7.29167H19.25H18.1994L16.1907 5.28302C16.2098 5.1999 16.2295 5.11754 16.2497 5.03592C16.3036 4.81838 16.3646 4.59614 16.4331 4.36919C16.5428 4.13691 16.5833 3.89614 16.5833 3.6735C16.5833 3.26832 16.4182 2.88964 16.1042 2.61565C15.8267 2.37356 15.4845 2.25 15.125 2.25C14.2754 2.25 13.4842 2.47778 12.7771 2.93611C12.2806 3.25796 11.8359 3.64117 11.4443 4.08333H6.8753C6.8752 4.08333 6.8751 4.08333 6.875 4.08333C5.46668 4.08271 4.2372 4.58633 3.24556 5.57798C2.25381 6.56972 1.75 7.79952 1.75 9.20833C1.75 10.9683 1.9949 12.6838 2.48547 14.3516C2.94746 15.9223 3.40217 17.5061 3.84957 19.1031ZM14.3725 9.66667C14.3725 9.63443 14.3792 9.58894 14.3998 9.54064C14.4199 9.49328 14.4442 9.46497 14.4546 9.45456C14.465 9.44415 14.4933 9.41994 14.5406 9.39977C14.5889 9.37919 14.6344 9.3725 14.6667 9.3725C14.6989 9.3725 14.7444 9.37919 14.7927 9.39977C14.8401 9.41994 14.8684 9.44416 14.8788 9.45456C14.8892 9.46497 14.9134 9.49328 14.9336 9.54064C14.9541 9.58894 14.9608 9.63443 14.9608 9.66667C14.9608 9.69891 14.9541 9.74439 14.9336 9.7927C14.9134 9.84005 14.8892 9.86837 14.8788 9.87877C14.8684 9.88918 14.8401 9.91339 14.7927 9.93357C14.7444 9.95414 14.6989 9.96083 14.6667 9.96083C14.6344 9.96083 14.5889 9.95414 14.5406 9.93357C14.4933 9.91339 14.465 9.88918 14.4546 9.87877C14.4442 9.86837 14.4199 9.84005 14.3998 9.79269C14.3792 9.74439 14.3725 9.69891 14.3725 9.66667Z" fill="white" stroke="black" stroke-width="2"/>
</svg>
