<svg width="22" height="23" viewBox="0 0 22 23" fill="none" xmlns="http://www.w3.org/2000/svg">
<g clip-path="url(#clip0_130_1347)">
<path d="M9.625 4.25H10.625V3.25V1.5H11.375V3.25V4.25H12.375H17.5625V5H12.375H11.375V6V10.125V11.125H12.375H15.125C16.1361 11.125 17.1059 11.5267 17.8208 12.2417C18.5358 12.9566 18.9375 13.9264 18.9375 14.9375C18.9375 15.9486 18.5358 16.9184 17.8208 17.6333C17.1059 18.3483 16.1361 18.75 15.125 18.75H12.375H11.375V19.75V21.5H10.625V19.75V18.75H9.625H4.4375V18H9.625H10.625V17V12.875V11.875H9.625H6.875C6.37433 11.875 5.87857 11.7764 5.41602 11.5848C4.95347 11.3932 4.53318 11.1124 4.17916 10.7583C3.82513 10.4043 3.5443 9.98403 3.35271 9.52148C3.16111 9.05893 3.0625 8.56316 3.0625 8.0625C3.0625 7.56184 3.16111 7.06607 3.35271 6.60352C3.54431 6.14097 3.82513 5.72068 4.17916 5.36666C4.53318 5.01263 4.95347 4.73181 5.41602 4.54021C5.87857 4.34861 6.37434 4.25 6.875 4.25H9.625ZM12.375 11.875H11.375V12.875V17V18H12.375H15.125C15.9372 18 16.7162 17.6773 17.2905 17.103C17.8648 16.5287 18.1875 15.7497 18.1875 14.9375C18.1875 14.1253 17.8648 13.3463 17.2905 12.772L16.5834 13.4791L17.2905 12.772C16.7162 12.1977 15.9372 11.875 15.125 11.875H12.375ZM9.625 11.125H10.625V10.125V6V5H9.625H6.875C6.47283 5 6.07459 5.07921 5.70303 5.23312L6.08572 6.157L5.70303 5.23312C5.33147 5.38702 4.99387 5.61261 4.70949 5.89699C4.42511 6.18136 4.19952 6.51897 4.04562 6.89053L4.9695 7.27322L4.04562 6.89053C3.89171 7.26209 3.8125 7.66033 3.8125 8.0625C3.8125 8.46467 3.89171 8.86291 4.04562 9.23447L4.95948 8.85593L4.04562 9.23447C4.19952 9.60603 4.42511 9.94363 4.70948 10.228L5.39378 9.54372L4.70949 10.228C4.99387 10.5124 5.33147 10.738 5.70303 10.8919C6.07459 11.0458 6.47283 11.125 6.875 11.125H9.625Z" fill="black" stroke="black" stroke-width="2"/>
</g>
<defs>
<clipPath id="clip0_130_1347">
<rect width="22" height="22" fill="white" transform="translate(0 0.5)"/>
</clipPath>
</defs>
</svg>
