<svg width="24" height="25" viewBox="0 0 24 25" fill="none" xmlns="http://www.w3.org/2000/svg">
<g clip-path="url(#clip0_130_1325)">
<path d="M1.00012 12.4232L1 12.4309L1 12.4386C0.999951 14.3695 1.50818 16.2664 2.4736 17.9387C3.43902 19.6109 4.82762 20.9996 6.49982 21.965C8.17202 22.9305 10.0689 23.4388 11.9998 23.4389C13.9307 23.4389 15.8276 22.9307 17.4999 21.9652C19.1721 20.9998 20.5608 19.6112 21.5262 17.939C22.4917 16.2667 23 14.3699 23 12.4389C23 10.508 22.4918 8.61112 21.5263 6.9389C20.5608 5.26667 19.1722 3.87804 17.5 2.91259C15.854 1.9622 13.9898 1.45453 12.0891 1.43908C10.1885 1.42364 8.31627 1.90095 6.65501 2.82447C4.99374 3.748 3.60013 5.08623 2.61003 6.70869C1.61993 8.33116 1.06713 10.1825 1.00553 12.0822L1.00525 12.0907L1.00512 12.0992L1.00012 12.4232ZM11.0553 16.4371L12 16.3848V16.4376H11.0453C11.0486 16.4374 11.052 16.4373 11.0553 16.4371ZM12.0008 16.4666L12.0009 16.4386H12.9858L12.9716 16.439L12.0008 16.4666ZM13.1315 16.4345L13.1264 16.4346C13.6107 16.404 14.069 16.198 14.4142 15.8528C14.7893 15.4778 15 14.969 15 14.4386C15 13.9082 14.7893 13.3995 14.4142 13.0244C14.0394 12.6496 13.531 12.4389 13.001 12.4386C13.5216 12.4381 14.0219 12.6406 14.3955 13.0031C14.7692 13.3656 14.9868 13.8595 15.002 14.3799C15.0173 14.9003 14.8291 15.4061 14.4773 15.7899C14.1285 16.1705 13.6463 16.4013 13.1315 16.4345ZM10.1001 16.2556C10.2939 16.3447 10.4999 16.4022 10.7103 16.4267C10.4263 16.3948 10.1517 16.3024 9.90545 16.155L9.39171 17.0129L9.90545 16.155C9.68897 16.0253 9.49968 15.8564 9.34691 15.6575C9.54612 15.9146 9.80447 16.1198 10.1001 16.2556ZM9.30449 15.5991L9.31581 15.6159C9.28719 15.5766 9.25997 15.5362 9.2342 15.4947L9.23649 15.4981L9.30449 15.5991ZM13.0922 8.43861H13.1437C13.4792 8.45157 13.8063 8.54883 14.0945 8.72153C14.3207 8.85709 14.5172 9.03565 14.6734 9.24635L14.6638 9.23365C14.29 8.73915 13.7147 8.454 13.0922 8.43861ZM14.6955 9.27813L14.6823 9.25847C14.7118 9.29898 14.7399 9.34065 14.7664 9.38341L14.7635 9.37913L14.6955 9.27813ZM12 8.43861H12.9858C12.9794 8.43877 12.9729 8.43896 12.9665 8.43917L12 8.47157V8.43861Z" fill="white" stroke="black" stroke-width="2"/>
</g>
<defs>
<clipPath id="clip0_130_1325">
<rect width="24" height="24" fill="white" transform="translate(0 0.438599)"/>
</clipPath>
</defs>
</svg>
