<svg width="22" height="25" viewBox="0 0 22 25" fill="none" xmlns="http://www.w3.org/2000/svg">
<g clip-path="url(#clip0_152_303)">
<mask id="path-1-outside-1_152_303" maskUnits="userSpaceOnUse" x="11.0117" y="10.4988" width="13" height="11" fill="black">
<rect fill="white" x="11.0117" y="10.4988" width="13" height="11"/>
<path d="M13.0117 21.4874V14.2274C13.0117 13.7689 13.1938 13.3292 13.518 13.0051C13.8422 12.6809 14.2818 12.4988 14.7403 12.4988C15.1987 12.4988 15.6384 12.6809 15.9626 13.0051C16.2867 13.3292 16.4689 13.7689 16.4689 14.2274V18.0302H19.2346C19.9681 18.0302 20.6716 18.3216 21.1902 18.8403C21.7089 19.3589 22.0003 20.0624 22.0003 20.7959V21.4874"/>
</mask>
<path d="M13.0117 21.4874V14.2274C13.0117 13.7689 13.1938 13.3292 13.518 13.0051C13.8422 12.6809 14.2818 12.4988 14.7403 12.4988C15.1987 12.4988 15.6384 12.6809 15.9626 13.0051C16.2867 13.3292 16.4689 13.7689 16.4689 14.2274V18.0302H19.2346C19.9681 18.0302 20.6716 18.3216 21.1902 18.8403C21.7089 19.3589 22.0003 20.0624 22.0003 20.7959V21.4874" fill="white"/>
<path d="M16.4689 14.2274H18.4689H16.4689ZM16.4689 18.0302H14.4689V20.0302H16.4689V18.0302ZM15.0117 21.4874V14.2274H11.0117V21.4874H15.0117ZM15.0117 14.2274C15.0117 14.2993 14.9831 14.3684 14.9322 14.4193L12.1038 11.5909C11.4045 12.2901 11.0117 13.2385 11.0117 14.2274H15.0117ZM14.9322 14.4193C14.8813 14.4702 14.8123 14.4988 14.7403 14.4988V10.4988C13.7514 10.4988 12.803 10.8916 12.1038 11.5909L14.9322 14.4193ZM14.7403 14.4988C14.6683 14.4988 14.5993 14.4702 14.5484 14.4193L17.3768 11.5909C16.6775 10.8916 15.7292 10.4988 14.7403 10.4988V14.4988ZM14.5484 14.4193C14.4975 14.3684 14.4689 14.2993 14.4689 14.2274H18.4689C18.4689 13.2385 18.076 12.2901 17.3768 11.5909L14.5484 14.4193ZM14.4689 14.2274V18.0302H18.4689V14.2274H14.4689ZM16.4689 20.0302H19.2346V16.0302H16.4689V20.0302ZM19.2346 20.0302C19.4377 20.0302 19.6324 20.1109 19.776 20.2545L22.6044 17.4261C21.7107 16.5323 20.4985 16.0302 19.2346 16.0302V20.0302ZM19.776 20.2545C19.9196 20.3981 20.0003 20.5928 20.0003 20.7959H24.0003C24.0003 19.532 23.4982 18.3198 22.6044 17.4261L19.776 20.2545ZM20.0003 20.7959V21.4874H24.0003V20.7959H20.0003Z" fill="black" mask="url(#path-1-outside-1_152_303)"/>
<mask id="path-3-outside-2_152_303" maskUnits="userSpaceOnUse" x="0.682617" y="0.832275" width="24" height="24" fill="black">
<rect fill="white" x="0.682617" y="0.832275" width="24" height="24"/>
<path fill-rule="evenodd" clip-rule="evenodd" d="M2.68262 8.93783C2.68418 8.05713 2.87591 7.18715 3.24471 6.38738C3.61351 5.58762 4.15068 4.87693 4.81948 4.30391C5.48828 3.7309 6.27294 3.30908 7.11981 3.06729C7.96667 2.8255 8.85577 2.76946 9.72629 2.90298C10.5968 3.0365 11.4282 3.35645 12.1637 3.84094C12.8992 4.32543 13.5213 4.96304 13.9876 5.71016C14.454 6.45728 14.7534 7.29629 14.8656 8.16983C14.9777 9.04337 14.8999 9.93082 14.6374 10.7715C13.7386 10.7981 12.8856 11.1739 12.2592 11.8191C11.6329 12.4642 11.2826 13.3281 11.2826 14.2273V14.5301C10.3512 14.944 9.33106 15.1185 8.31501 15.0379C7.29895 14.9572 6.31916 14.6239 5.46468 14.0683C4.6102 13.5127 3.90813 12.7523 3.42226 11.8563C2.93639 10.9603 2.68214 9.95708 2.68262 8.93783ZM8.79899 4.46014C9.27746 4.46014 9.66328 4.84734 9.66328 5.32443V5.71578C10.0031 5.79403 10.3177 5.95669 10.578 6.18873C10.8384 6.42076 11.036 6.71469 11.1526 7.04332C11.1905 7.15037 11.2069 7.26383 11.2009 7.37723C11.1949 7.49062 11.1667 7.60173 11.1177 7.7042C11.0688 7.80667 11.0002 7.8985 10.9158 7.97445C10.8313 8.0504 10.7328 8.10897 10.6257 8.14684C10.5187 8.1847 10.4052 8.20111 10.2918 8.19512C10.1784 8.18914 10.0673 8.16087 9.96487 8.11195C9.8624 8.06303 9.77057 7.9944 9.69462 7.90998C9.61867 7.82557 9.56009 7.72702 9.52223 7.61997C9.49809 7.55407 9.45447 7.49708 9.39716 7.45657C9.33986 7.41606 9.27158 7.39395 9.20141 7.39318H8.26798C8.21636 7.39408 8.16686 7.41381 8.12879 7.44867C8.09071 7.48353 8.06669 7.5311 8.06125 7.58243C8.05581 7.63377 8.06933 7.68532 8.09925 7.72738C8.12918 7.76944 8.17345 7.79911 8.22373 7.8108L9.64392 8.12056C10.1031 8.22152 10.5142 8.47573 10.8096 8.8414C11.105 9.20706 11.2672 9.66239 11.2695 10.1325C11.2717 10.6026 11.1139 11.0594 10.822 11.4279C10.5301 11.7964 10.1214 12.0545 9.66328 12.1599V12.5526C9.66328 12.7818 9.57222 13.0017 9.41014 13.1638C9.24805 13.3258 9.02822 13.4169 8.79899 13.4169C8.56977 13.4169 8.34994 13.3258 8.18785 13.1638C8.02577 13.0017 7.93471 12.7818 7.93471 12.5526V12.1613C7.59513 12.0828 7.2808 11.9201 7.02074 11.688C6.76068 11.456 6.56328 11.1622 6.44675 10.8337C6.37029 10.6175 6.38284 10.3798 6.48164 10.1729C6.58045 9.9659 6.75742 9.80668 6.97362 9.73021C7.18983 9.65374 7.42755 9.66629 7.6345 9.7651C7.84145 9.8639 8.00067 10.0409 8.07714 10.2571C8.10128 10.323 8.1449 10.38 8.20221 10.4205C8.25951 10.461 8.32779 10.4831 8.39797 10.4839H9.20141C9.28424 10.4818 9.36351 10.4497 9.42445 10.3936C9.48539 10.3374 9.52384 10.2611 9.53264 10.1787C9.54143 10.0963 9.51998 10.0135 9.47227 9.94574C9.42456 9.878 9.35385 9.8299 9.27331 9.81042L7.8545 9.49927C7.41502 9.40348 7.02248 9.15797 6.74402 8.80473C6.46556 8.45148 6.31849 8.01246 6.32796 7.56276C6.33744 7.11306 6.50287 6.68063 6.79596 6.33943C7.08905 5.99823 7.49158 5.76946 7.93471 5.69227V5.32443C7.93471 4.84596 8.32191 4.46014 8.79899 4.46014ZM13.0112 14.2273V22.1787H21.9997V20.7958C21.9997 20.0623 21.7084 19.3589 21.1897 18.8402C20.671 18.3215 19.9675 18.0301 19.234 18.0301H16.4683V14.2273C16.4683 13.7688 16.2862 13.3291 15.962 13.005C15.6379 12.6808 15.1982 12.4987 14.7397 12.4987C14.2813 12.4987 13.8416 12.6808 13.5175 13.005C13.1933 13.3291 13.0112 13.7688 13.0112 14.2273Z"/>
</mask>
<path fill-rule="evenodd" clip-rule="evenodd" d="M2.68262 8.93783C2.68418 8.05713 2.87591 7.18715 3.24471 6.38738C3.61351 5.58762 4.15068 4.87693 4.81948 4.30391C5.48828 3.7309 6.27294 3.30908 7.11981 3.06729C7.96667 2.8255 8.85577 2.76946 9.72629 2.90298C10.5968 3.0365 11.4282 3.35645 12.1637 3.84094C12.8992 4.32543 13.5213 4.96304 13.9876 5.71016C14.454 6.45728 14.7534 7.29629 14.8656 8.16983C14.9777 9.04337 14.8999 9.93082 14.6374 10.7715C13.7386 10.7981 12.8856 11.1739 12.2592 11.8191C11.6329 12.4642 11.2826 13.3281 11.2826 14.2273V14.5301C10.3512 14.944 9.33106 15.1185 8.31501 15.0379C7.29895 14.9572 6.31916 14.6239 5.46468 14.0683C4.6102 13.5127 3.90813 12.7523 3.42226 11.8563C2.93639 10.9603 2.68214 9.95708 2.68262 8.93783ZM8.79899 4.46014C9.27746 4.46014 9.66328 4.84734 9.66328 5.32443V5.71578C10.0031 5.79403 10.3177 5.95669 10.578 6.18873C10.8384 6.42076 11.036 6.71469 11.1526 7.04332C11.1905 7.15037 11.2069 7.26383 11.2009 7.37723C11.1949 7.49062 11.1667 7.60173 11.1177 7.7042C11.0688 7.80667 11.0002 7.8985 10.9158 7.97445C10.8313 8.0504 10.7328 8.10897 10.6257 8.14684C10.5187 8.1847 10.4052 8.20111 10.2918 8.19512C10.1784 8.18914 10.0673 8.16087 9.96487 8.11195C9.8624 8.06303 9.77057 7.9944 9.69462 7.90998C9.61867 7.82557 9.56009 7.72702 9.52223 7.61997C9.49809 7.55407 9.45447 7.49708 9.39716 7.45657C9.33986 7.41606 9.27158 7.39395 9.20141 7.39318H8.26798C8.21636 7.39408 8.16686 7.41381 8.12879 7.44867C8.09071 7.48353 8.06669 7.5311 8.06125 7.58243C8.05581 7.63377 8.06933 7.68532 8.09925 7.72738C8.12918 7.76944 8.17345 7.79911 8.22373 7.8108L9.64392 8.12056C10.1031 8.22152 10.5142 8.47573 10.8096 8.8414C11.105 9.20706 11.2672 9.66239 11.2695 10.1325C11.2717 10.6026 11.1139 11.0594 10.822 11.4279C10.5301 11.7964 10.1214 12.0545 9.66328 12.1599V12.5526C9.66328 12.7818 9.57222 13.0017 9.41014 13.1638C9.24805 13.3258 9.02822 13.4169 8.79899 13.4169C8.56977 13.4169 8.34994 13.3258 8.18785 13.1638C8.02577 13.0017 7.93471 12.7818 7.93471 12.5526V12.1613C7.59513 12.0828 7.2808 11.9201 7.02074 11.688C6.76068 11.456 6.56328 11.1622 6.44675 10.8337C6.37029 10.6175 6.38284 10.3798 6.48164 10.1729C6.58045 9.9659 6.75742 9.80668 6.97362 9.73021C7.18983 9.65374 7.42755 9.66629 7.6345 9.7651C7.84145 9.8639 8.00067 10.0409 8.07714 10.2571C8.10128 10.323 8.1449 10.38 8.20221 10.4205C8.25951 10.461 8.32779 10.4831 8.39797 10.4839H9.20141C9.28424 10.4818 9.36351 10.4497 9.42445 10.3936C9.48539 10.3374 9.52384 10.2611 9.53264 10.1787C9.54143 10.0963 9.51998 10.0135 9.47227 9.94574C9.42456 9.878 9.35385 9.8299 9.27331 9.81042L7.8545 9.49927C7.41502 9.40348 7.02248 9.15797 6.74402 8.80473C6.46556 8.45148 6.31849 8.01246 6.32796 7.56276C6.33744 7.11306 6.50287 6.68063 6.79596 6.33943C7.08905 5.99823 7.49158 5.76946 7.93471 5.69227V5.32443C7.93471 4.84596 8.32191 4.46014 8.79899 4.46014ZM13.0112 14.2273V22.1787H21.9997V20.7958C21.9997 20.0623 21.7084 19.3589 21.1897 18.8402C20.671 18.3215 19.9675 18.0301 19.234 18.0301H16.4683V14.2273C16.4683 13.7688 16.2862 13.3291 15.962 13.005C15.6379 12.6808 15.1982 12.4987 14.7397 12.4987C14.2813 12.4987 13.8416 12.6808 13.5175 13.005C13.1933 13.3291 13.0112 13.7688 13.0112 14.2273Z" fill="white"/>
<path d="M2.68262 8.93783L0.682619 8.93429L0.682618 8.9369L2.68262 8.93783ZM14.6374 10.7715L14.6966 12.7706L16.1216 12.7284L16.5465 11.3676L14.6374 10.7715ZM11.2826 14.2273H13.2826V14.2272L11.2826 14.2273ZM11.2826 14.5301L12.0947 16.3578L13.2826 15.83V14.5301H11.2826ZM9.66328 5.71578H7.66328V7.30758L9.21449 7.66477L9.66328 5.71578ZM11.1526 7.04332L13.0382 6.37642L13.0374 6.37432L11.1526 7.04332ZM9.52223 7.61997L11.4078 6.95307L11.404 6.94256L11.4002 6.93209L9.52223 7.61997ZM9.20141 7.39318L9.22339 5.3933L9.2124 5.39318H9.20141V7.39318ZM8.26798 7.39318V5.39318H8.25061L8.23324 5.39348L8.26798 7.39318ZM8.22373 7.8108L7.77069 9.75882L7.78409 9.76193L7.79752 9.76486L8.22373 7.8108ZM9.64392 8.12056L10.0734 6.16722L10.0701 6.1665L9.64392 8.12056ZM9.66328 12.1599L9.21508 10.2108L7.66328 10.5676V12.1599H9.66328ZM9.66328 12.5526H7.66328H9.66328ZM7.93471 12.1613H9.93471V10.5707L8.38495 10.2126L7.93471 12.1613ZM6.44675 10.8337L4.56122 11.5006L4.56184 11.5024L6.44675 10.8337ZM8.07714 10.2571L6.19161 10.924L6.19532 10.9345L6.19916 10.945L8.07714 10.2571ZM8.39797 10.4839L8.37598 12.4837L8.38697 12.4839H8.39797V10.4839ZM9.20141 10.4839V12.4839H9.22602L9.25062 12.4833L9.20141 10.4839ZM9.27331 9.81042L9.74358 7.86649L9.72271 7.86144L9.70173 7.85684L9.27331 9.81042ZM7.8545 9.49927L8.28292 7.54569L8.28043 7.54515L7.8545 9.49927ZM7.93471 5.69227L8.27795 7.66259L9.93471 7.37398V5.69227H7.93471ZM13.0112 22.1787H11.0112V24.1787H13.0112V22.1787ZM21.9997 22.1787V24.1787H23.9997V22.1787H21.9997ZM16.4683 18.0301H14.4683V20.0301H16.4683V18.0301ZM4.68261 8.94137C4.68366 8.34865 4.8127 7.76314 5.06091 7.22489L1.42851 5.54987C0.939119 6.61115 0.684688 7.76561 0.682621 8.93429L4.68261 8.94137ZM5.06091 7.22489C5.30911 6.68664 5.67063 6.20834 6.12074 5.8227L3.51822 2.78512C2.63072 3.54551 1.91791 4.48859 1.42851 5.54987L5.06091 7.22489ZM6.12074 5.8227C6.57085 5.43706 7.09894 5.15317 7.66888 4.99044L6.57073 1.14414C5.44695 1.46499 4.40571 2.02474 3.51822 2.78512L6.12074 5.8227ZM7.66888 4.99044C8.23883 4.82772 8.8372 4.79 9.42307 4.87986L10.0295 0.926098C8.87433 0.748913 7.69452 0.823288 6.57073 1.14414L7.66888 4.99044ZM9.42307 4.87986C10.0089 4.96972 10.5685 5.18505 11.0635 5.51112L13.2639 2.17076C12.288 1.52785 11.1847 1.10328 10.0295 0.926098L9.42307 4.87986ZM11.0635 5.51112C11.5584 5.83718 11.9772 6.2663 12.291 6.76912L15.6843 4.6512C15.0655 3.65977 14.2399 2.81368 13.2639 2.17076L11.0635 5.51112ZM12.291 6.76912C12.6048 7.27193 12.8064 7.8366 12.8819 8.4245L16.8493 7.91516C16.7005 6.75599 16.3031 5.64262 15.6843 4.6512L12.291 6.76912ZM12.8819 8.4245C12.9573 9.0124 12.905 9.60966 12.7283 10.1754L16.5465 11.3676C16.8948 10.252 16.9981 9.07434 16.8493 7.91516L12.8819 8.4245ZM14.5782 8.77238C13.1594 8.81439 11.8129 9.40754 10.8242 10.426L13.6942 13.2122C13.9582 12.9402 14.3178 12.7818 14.6966 12.7706L14.5782 8.77238ZM10.8242 10.426C9.83553 11.4444 9.28255 12.8079 9.28261 14.2273L13.2826 14.2272C13.2826 13.8482 13.4302 13.4841 13.6942 13.2122L10.8242 10.426ZM9.28261 14.2273V14.5301H13.2826V14.2273H9.28261ZM10.4705 12.7024C9.84362 12.981 9.15708 13.0984 8.47327 13.0441L8.15675 17.0316C9.50505 17.1386 10.8587 16.907 12.0947 16.3578L10.4705 12.7024ZM8.47327 13.0441C7.78945 12.9899 7.13005 12.7656 6.55497 12.3916L4.37439 15.745C5.50828 16.4823 6.80846 16.9246 8.15675 17.0316L8.47327 13.0441ZM6.55497 12.3916C5.9799 12.0177 5.5074 11.5059 5.1804 10.9029L1.66412 12.8097C2.30886 13.9986 3.24051 15.0076 4.37439 15.745L6.55497 12.3916ZM5.1804 10.9029C4.85341 10.2999 4.6823 9.62473 4.68262 8.93876L0.682618 8.9369C0.681989 10.2894 1.01938 11.6207 1.66412 12.8097L5.1804 10.9029ZM8.79899 6.46014C8.17081 6.46014 7.66328 5.94983 7.66328 5.32443H11.6633C11.6633 3.74486 10.3841 2.46014 8.79899 2.46014V6.46014ZM7.66328 5.32443V5.71578H11.6633V5.32443H7.66328ZM9.21449 7.66477C9.22666 7.66757 9.23793 7.6734 9.24725 7.68171L11.9088 4.69575C11.3975 4.23998 10.7796 3.92048 10.1121 3.76678L9.21449 7.66477ZM9.24725 7.68171C9.25657 7.69002 9.26365 7.70054 9.26782 7.71231L13.0374 6.37432C12.8083 5.72883 12.4201 5.15151 11.9088 4.69575L9.24725 7.68171ZM9.26708 7.71021C9.21737 7.56965 9.19582 7.42068 9.20368 7.27179L13.1981 7.48266C13.218 7.10699 13.1636 6.73109 13.0382 6.37642L9.26708 7.71021ZM9.20368 7.27179C9.21154 7.12291 9.24865 6.97703 9.31289 6.84249L12.9226 8.56591C13.0847 8.22642 13.1783 7.85833 13.1981 7.48266L9.20368 7.27179ZM9.31289 6.84249C9.37712 6.70794 9.46723 6.58737 9.57807 6.48765L12.2535 9.46125C12.5331 9.20963 12.7605 8.90539 12.9226 8.56591L9.31289 6.84249ZM9.57807 6.48765C9.6889 6.38793 9.81829 6.31102 9.95885 6.2613L11.2926 10.0324C11.6473 9.90693 11.9738 9.71287 12.2535 9.46125L9.57807 6.48765ZM9.95885 6.2613C10.0994 6.21159 10.2484 6.19004 10.3973 6.1979L10.1864 10.1923C10.5621 10.2122 10.938 10.1578 11.2926 10.0324L9.95885 6.2613ZM10.3973 6.1979C10.5462 6.20576 10.692 6.24287 10.8266 6.30711L9.10316 9.91679C9.44265 10.0789 9.81074 10.1725 10.1864 10.1923L10.3973 6.1979ZM10.8266 6.30711C10.9611 6.37135 11.0817 6.46145 11.1814 6.57229L8.20782 9.24768C8.45944 9.52734 8.76367 9.75471 9.10316 9.91679L10.8266 6.30711ZM11.1814 6.57229C11.2811 6.68313 11.3581 6.81252 11.4078 6.95307L7.63669 8.28686C7.76213 8.64153 7.9562 8.96801 8.20782 9.24768L11.1814 6.57229ZM11.4002 6.93209C11.2364 6.48496 10.9405 6.09828 10.5516 5.82342L8.24269 9.08973C7.96848 8.89589 7.75975 8.62318 7.64425 8.30785L11.4002 6.93209ZM10.5516 5.82342C10.1628 5.54855 9.69953 5.39854 9.22339 5.3933L9.17942 9.39306C8.84363 9.38937 8.51691 9.28357 8.24269 9.08973L10.5516 5.82342ZM9.20141 5.39318H8.26798V9.39318H9.20141V5.39318ZM8.23324 5.39348C7.69374 5.40285 7.17628 5.60914 6.77829 5.97348L9.47928 8.92385C9.15744 9.21849 8.73899 9.3853 8.30271 9.39288L8.23324 5.39348ZM6.77829 5.97348C6.3803 6.33784 6.12924 6.83512 6.07239 7.37169L10.0501 7.79317C10.0041 8.22708 9.80112 8.62922 9.47928 8.92385L6.77829 5.97348ZM6.07239 7.37169C6.01553 7.90827 6.1568 8.44712 6.4696 8.88679L9.72891 6.56797C9.98185 6.92351 10.0961 7.35926 10.0501 7.79317L6.07239 7.37169ZM6.4696 8.88679C6.78239 9.32645 7.24513 9.63659 7.77069 9.75882L8.67676 5.86279C9.10176 5.96163 9.47596 6.21243 9.72891 6.56797L6.4696 8.88679ZM7.79752 9.76486L9.21772 10.0746L10.0701 6.1665L8.64993 5.85674L7.79752 9.76486ZM9.21443 10.0739C9.22998 10.0773 9.24391 10.0859 9.25392 10.0983L12.3653 7.58447C11.7844 6.86553 10.9761 6.36571 10.0734 6.16723L9.21443 10.0739ZM9.25392 10.0983C9.26393 10.1107 9.26942 10.1261 9.2695 10.1421L13.2695 10.1229C13.265 9.19863 12.9461 8.3034 12.3653 7.58447L9.25392 10.0983ZM9.2695 10.1421C9.26958 10.158 9.26423 10.1735 9.25434 10.186L12.3896 12.6699C12.9636 11.9454 13.2739 11.0472 13.2695 10.1229L9.2695 10.1421ZM9.25434 10.186C9.24445 10.1984 9.2306 10.2072 9.21508 10.2108L10.1115 14.109C11.0122 13.9019 11.8157 13.3943 12.3896 12.6699L9.25434 10.186ZM7.66328 12.1599V12.5526H11.6633V12.1599H7.66328ZM7.66328 12.5526C7.66328 12.2514 7.78294 11.9625 7.99592 11.7496L10.8244 14.578C11.3615 14.0408 11.6633 13.3123 11.6633 12.5526H7.66328ZM7.99592 11.7496C8.20891 11.5366 8.49778 11.4169 8.79899 11.4169V15.4169C9.55865 15.4169 10.2872 15.1151 10.8244 14.578L7.99592 11.7496ZM8.79899 11.4169C9.10021 11.4169 9.38908 11.5366 9.60207 11.7496L6.77364 14.578C7.3108 15.1151 8.03934 15.4169 8.79899 15.4169V11.4169ZM9.60207 11.7496C9.81505 11.9625 9.93471 12.2514 9.93471 12.5526H5.93471C5.93471 13.3123 6.23648 14.0408 6.77364 14.578L9.60207 11.7496ZM9.93471 12.5526V12.1613H5.93471V12.5526H9.93471ZM8.38495 10.2126C8.37279 10.2098 8.36154 10.204 8.35222 10.1957L5.68926 13.1804C6.20007 13.6361 6.81747 13.9558 7.48446 14.1099L8.38495 10.2126ZM8.35222 10.1957C8.34291 10.1874 8.33584 10.1768 8.33167 10.1651L4.56184 11.5024C4.79071 12.1476 5.17845 12.7247 5.68926 13.1804L8.35222 10.1957ZM8.33229 10.1668C8.43269 10.4507 8.41622 10.7628 8.28648 11.0346L4.6768 9.31114C4.34945 9.99677 4.30788 10.7843 4.56122 11.5006L8.33229 10.1668ZM8.28648 11.0346C8.15675 11.3063 7.92439 11.5153 7.64052 11.6157L6.30673 7.84467C5.59045 8.09801 5.00415 8.62552 4.6768 9.31114L8.28648 11.0346ZM7.64052 11.6157C7.35665 11.7161 7.04452 11.6997 6.77279 11.5699L8.49621 7.96026C7.81059 7.63291 7.02301 7.59133 6.30673 7.84467L7.64052 11.6157ZM6.77279 11.5699C6.50107 11.4402 6.29201 11.2078 6.19161 10.924L9.96268 9.59018C9.70934 8.8739 9.18184 8.2876 8.49621 7.96026L6.77279 11.5699ZM6.19916 10.945C6.36293 11.3921 6.6589 11.7788 7.04774 12.0536L9.35668 8.78732C9.6309 8.98117 9.83963 9.25388 9.95513 9.5692L6.19916 10.945ZM7.04774 12.0536C7.43657 12.3285 7.89985 12.4785 8.37598 12.4837L8.41995 8.48399C8.75574 8.48768 9.08246 8.59347 9.35668 8.78732L7.04774 12.0536ZM8.39797 12.4839H9.20141V8.48387H8.39797V12.4839ZM9.25062 12.4833C9.8185 12.4693 10.3619 12.2493 10.7797 11.8644L8.06922 8.92277C8.3651 8.65014 8.74999 8.49437 9.15219 8.48447L9.25062 12.4833ZM10.7797 11.8644C11.1974 11.4795 11.461 10.9559 11.5213 10.391L7.54394 9.96632C7.58666 9.56627 7.77335 9.19538 8.06922 8.92277L10.7797 11.8644ZM11.5213 10.391C11.5816 9.82618 11.4346 9.25867 11.1075 8.79423L7.83703 11.0973C7.60539 10.7683 7.50122 10.3664 7.54394 9.96632L11.5213 10.391ZM11.1075 8.79423C10.7804 8.32978 10.2957 8.00006 9.74358 7.86649L8.80304 11.7543C8.412 11.6597 8.06868 11.4262 7.83703 11.0973L11.1075 8.79423ZM9.70173 7.85684L8.28292 7.5457L7.42609 11.4528L8.8449 11.764L9.70173 7.85684ZM8.28043 7.54515C8.29398 7.54811 8.30609 7.55568 8.31468 7.56658L5.17335 10.0429C5.73886 10.7603 6.53606 11.2589 7.42858 11.4534L8.28043 7.54515ZM8.31468 7.56658C8.32327 7.57748 8.32781 7.59102 8.32752 7.60489L4.3284 7.52064C4.30916 8.43391 4.60784 9.32549 5.17335 10.0429L8.31468 7.56658ZM8.32752 7.60489C8.32723 7.61876 8.32212 7.6321 8.31308 7.64263L5.27883 5.03622C4.68361 5.72915 4.34765 6.60737 4.3284 7.52064L8.32752 7.60489ZM8.31308 7.64263C8.30404 7.65315 8.29162 7.66021 8.27795 7.66259L7.59147 3.72194C6.69155 3.87871 5.87405 4.3433 5.27883 5.03622L8.31308 7.64263ZM9.93471 5.69227V5.32443H5.93471V5.69227H9.93471ZM9.93471 5.32443C9.93471 5.95261 9.42439 6.46014 8.79899 6.46014V2.46014C7.21942 2.46014 5.93471 3.73931 5.93471 5.32443H9.93471ZM11.0112 14.2273V22.1787H15.0112V14.2273H11.0112ZM13.0112 24.1787H21.9997V20.1787H13.0112V24.1787ZM23.9997 22.1787V20.7958H19.9997V22.1787H23.9997ZM23.9997 20.7958C23.9997 19.5319 23.4976 18.3197 22.6039 17.426L19.7755 20.2544C19.9191 20.398 19.9997 20.5928 19.9997 20.7958H23.9997ZM22.6039 17.426C21.7102 16.5322 20.498 16.0301 19.234 16.0301V20.0301C19.4371 20.0301 19.6319 20.1108 19.7755 20.2544L22.6039 17.426ZM19.234 16.0301H16.4683V20.0301H19.234V16.0301ZM18.4683 18.0301V14.2273H14.4683V18.0301H18.4683ZM18.4683 14.2273C18.4683 13.2384 18.0755 12.29 17.3762 11.5908L14.5478 14.4192C14.4969 14.3683 14.4683 14.2992 14.4683 14.2273H18.4683ZM17.3762 11.5908C16.677 10.8915 15.7286 10.4987 14.7397 10.4987V14.4987C14.6678 14.4987 14.5987 14.4701 14.5478 14.4192L17.3762 11.5908ZM14.7397 10.4987C13.7509 10.4987 12.8025 10.8915 12.1033 11.5908L14.9317 14.4192C14.8808 14.4701 14.8117 14.4987 14.7397 14.4987V10.4987ZM12.1033 11.5908C11.404 12.29 11.0112 13.2384 11.0112 14.2273H15.0112C15.0112 14.2992 14.9826 14.3683 14.9317 14.4192L12.1033 11.5908Z" fill="black" mask="url(#path-3-outside-2_152_303)"/>
</g>
<defs>
<clipPath id="clip0_152_303">
<rect width="22" height="23.76" fill="white" transform="translate(0 0.619995)"/>
</clipPath>
</defs>
</svg>
